<?xml version="1.0" encoding="UTF-8"?>
<svg xmlns="http://www.w3.org/2000/svg" viewBox="0 0 50 50">
  <path fill='hsla(200deg, 25%, 25%, 0.5)' d="m6.25,43.75c0,2.07,1.68,3.75,3.75,3.75h30c2.07,0,3.75-1.68,3.75-3.75v-24.37H6.25v24.37Zm28.13-18.75h3.75v16.88h-3.75v-16.88Zm-11.25,0h3.75v16.88h-3.75v-16.88Zm-11.25,0h3.75v16.88h-3.75v-16.88Zm33.76-15h-11.25v-3.74c0-2.07-1.69-3.75-3.75-3.75h-11.25c-2.07,0-3.75,1.68-3.75,3.75v3.75H4.37c-1.04,0-1.87.83-1.87,1.87v1.87c0,1.04.84,1.87,1.87,1.87h41.26c1.04,0,1.87-.83,1.87-1.87v-1.87c0-1.04-.83-1.88-1.86-1.88Zm-15.01,0h-11.25v-3.74h11.25v3.74Z"/>
</svg>