<?xml version="1.0" encoding="UTF-8"?>
<svg xmlns="http://www.w3.org/2000/svg" viewBox="0 0 50 50">
  <path fill='hsl(200deg, 20%, 80%)' d="m40.56,25.55c-1.07,0-1.94.87-1.94,1.94,0,7.52-6.09,13.61-13.61,13.61s-13.61-6.09-13.61-13.61,6.09-13.61,13.61-13.61v4.51c0,.3.09.58.26.83.46.66,1.37.83,2.03.37l8.62-5.97c.14-.1.27-.23.37-.37.46-.66.29-1.57-.37-2.03l-8.62-5.97c-.24-.17-.53-.26-.83-.26-.81,0-1.46.65-1.46,1.46v3.54c-9.67,0-17.5,7.84-17.5,17.5s7.84,17.5,17.5,17.5,17.5-7.84,17.5-17.5c0-1.07-.87-1.94-1.94-1.94Z"/>
</svg>